<svg width="45" height="44" viewBox="0 0 45 44" fill="none" xmlns="http://www.w3.org/2000/svg">
<g clip-path="url(#clip0_3_126)">
<path d="M5.52734 12.8333C5.52734 11.8609 5.91557 10.9282 6.60663 10.2406C7.29768 9.55296 8.23495 9.16666 9.21225 9.16666H35.0066C35.9839 9.16666 36.9212 9.55296 37.6122 10.2406C38.3033 10.9282 38.6915 11.8609 38.6915 12.8333V31.1667C38.6915 32.1391 38.3033 33.0717 37.6122 33.7594C36.9212 34.447 35.9839 34.8333 35.0066 34.8333H9.21225C8.23495 34.8333 7.29768 34.447 6.60663 33.7594C5.91557 33.0717 5.52734 32.1391 5.52734 31.1667V12.8333Z" stroke="#EAEAEA" stroke-width="2.75" stroke-linecap="round" stroke-linejoin="round"/>
<path d="M5.52734 12.8333L22.1094 23.8333L38.6915 12.8333" stroke="#EAEAEA" stroke-width="2.75" stroke-linecap="round" stroke-linejoin="round"/>
</g>
<defs>
<clipPath id="clip0_3_126">
<rect width="44.2189" height="44" fill="white"/>
</clipPath>
</defs>
</svg>
