<svg width="44" height="44" viewBox="0 0 44 44" fill="none" xmlns="http://www.w3.org/2000/svg">
<g clip-path="url(#clip0_40_5)">
<path d="M14.6667 22C14.6667 23.9449 15.4394 25.8102 16.8146 27.1855C18.1899 28.5607 20.0552 29.3333 22.0001 29.3333C23.945 29.3333 25.8103 28.5607 27.1855 27.1855C28.5608 25.8102 29.3334 23.9449 29.3334 22C29.3334 20.0551 28.5608 18.1898 27.1855 16.8146C25.8103 15.4393 23.945 14.6667 22.0001 14.6667C20.0552 14.6667 18.1899 15.4393 16.8146 16.8146C15.4394 18.1898 14.6667 20.0551 14.6667 22Z" stroke="#800280" stroke-width="2.75" stroke-linecap="round" stroke-linejoin="round"/>
<path d="M5.5 22H7.33333M22 5.5V7.33333M36.6667 22H38.5M22 36.6667V38.5M10.2667 10.2667L11.55 11.55M33.7333 10.2667L32.45 11.55M32.45 32.45L33.7333 33.7333M11.55 32.45L10.2667 33.7333" stroke="#800280" stroke-width="2.75" stroke-linecap="round" stroke-linejoin="round"/>
</g>
<defs>
<clipPath id="clip0_40_5">
<rect width="44" height="44" fill="white"/>
</clipPath>
</defs>
</svg>
