<svg width="44" height="44" viewBox="0 0 44 44" fill="none" xmlns="http://www.w3.org/2000/svg">
<g clip-path="url(#clip0_3_116)">
<path d="M7.33325 11C7.33325 10.0275 7.71956 9.0949 8.40719 8.40727C9.09483 7.71964 10.0275 7.33333 10.9999 7.33333H32.9999C33.9724 7.33333 34.905 7.71964 35.5926 8.40727C36.2803 9.0949 36.6666 10.0275 36.6666 11V33C36.6666 33.9725 36.2803 34.9051 35.5926 35.5927C34.905 36.2804 33.9724 36.6667 32.9999 36.6667H10.9999C10.0275 36.6667 9.09483 36.2804 8.40719 35.5927C7.71956 34.9051 7.33325 33.9725 7.33325 33V11Z" stroke="#EAEAEA" stroke-width="2.75" stroke-linecap="round" stroke-linejoin="round"/>
<path d="M14.6667 20.1667V29.3333" stroke="#EAEAEA" stroke-width="2.75" stroke-linecap="round" stroke-linejoin="round"/>
<path d="M14.6667 14.6667V14.685" stroke="#EAEAEA" stroke-width="2.75" stroke-linecap="round" stroke-linejoin="round"/>
<path d="M22 29.3333V20.1667" stroke="#EAEAEA" stroke-width="2.75" stroke-linecap="round" stroke-linejoin="round"/>
<path d="M29.3333 29.3333V23.8333C29.3333 22.8609 28.947 21.9282 28.2594 21.2406C27.5718 20.553 26.6391 20.1667 25.6667 20.1667C24.6942 20.1667 23.7616 20.553 23.0739 21.2406C22.3863 21.9282 22 22.8609 22 23.8333" stroke="#EAEAEA" stroke-width="2.75" stroke-linecap="round" stroke-linejoin="round"/>
</g>
<defs>
<clipPath id="clip0_3_116">
<rect width="44" height="44" fill="white"/>
</clipPath>
</defs>
</svg>
