<svg width="44" height="44" viewBox="0 0 44 44" fill="none" xmlns="http://www.w3.org/2000/svg">
<g clip-path="url(#clip0_37_2)">
<path d="M22 27.5C22 28.9587 22.5795 30.3576 23.6109 31.3891C24.6424 32.4205 26.0413 33 27.5 33C28.9587 33 30.3576 32.4205 31.3891 31.3891C32.4205 30.3576 33 28.9587 33 27.5C33 26.0413 32.4205 24.6424 31.3891 23.6109C30.3576 22.5795 28.9587 22 27.5 22C26.0413 22 24.6424 22.5795 23.6109 23.6109C22.5795 24.6424 22 26.0413 22 27.5Z" stroke="#EAEAEA" stroke-width="2.75" stroke-linecap="round" stroke-linejoin="round"/>
<path d="M23.8333 32.0833V40.3333L27.4999 37.5833L31.1666 40.3333V32.0833" stroke="#EAEAEA" stroke-width="2.75" stroke-linecap="round" stroke-linejoin="round"/>
<path d="M18.3333 34.8333H9.16667C8.19421 34.8333 7.26158 34.447 6.57394 33.7594C5.88631 33.0717 5.5 32.1391 5.5 31.1667V12.8333C5.5 10.8167 7.15 9.16666 9.16667 9.16666H34.8333C35.8058 9.16666 36.7384 9.55296 37.4261 10.2406C38.1137 10.9282 38.5 11.8609 38.5 12.8333V31.1667C38.4993 31.8097 38.3296 32.4412 38.0078 32.9979C37.686 33.5545 37.2235 34.0168 36.6667 34.3383" stroke="#EAEAEA" stroke-width="2.75" stroke-linecap="round" stroke-linejoin="round"/>
<path d="M11 16.5H33" stroke="#EAEAEA" stroke-width="2.75" stroke-linecap="round" stroke-linejoin="round"/>
<path d="M11 22H16.5" stroke="#EAEAEA" stroke-width="2.75" stroke-linecap="round" stroke-linejoin="round"/>
<path d="M11 27.5H14.6667" stroke="#EAEAEA" stroke-width="2.75" stroke-linecap="round" stroke-linejoin="round"/>
</g>
<defs>
<clipPath id="clip0_37_2">
<rect width="44" height="44" fill="white"/>
</clipPath>
</defs>
</svg>
