<svg width="32" height="32" viewBox="0 0 32 32" fill="none" xmlns="http://www.w3.org/2000/svg">
<g clip-path="url(#clip0_3_96)">
<path d="M4 25.3333H28" stroke="#800280" stroke-width="2.75" stroke-linecap="round" stroke-linejoin="round"/>
<path d="M6.66675 9.33333C6.66675 8.97971 6.80722 8.64057 7.05727 8.39052C7.30732 8.14048 7.64646 8 8.00008 8H24.0001C24.3537 8 24.6928 8.14048 24.9429 8.39052C25.1929 8.64057 25.3334 8.97971 25.3334 9.33333V20C25.3334 20.3536 25.1929 20.6928 24.9429 20.9428C24.6928 21.1929 24.3537 21.3333 24.0001 21.3333H8.00008C7.64646 21.3333 7.30732 21.1929 7.05727 20.9428C6.80722 20.6928 6.66675 20.3536 6.66675 20V9.33333Z" stroke="#800280" stroke-width="2.75" stroke-linecap="round" stroke-linejoin="round"/>
</g>
<defs>
<clipPath id="clip0_3_96">
<rect width="32" height="32" fill="white"/>
</clipPath>
</defs>
</svg>
