<svg width="32" height="32" viewBox="0 0 32 32" fill="none" xmlns="http://www.w3.org/2000/svg">
<g clip-path="url(#clip0_3_102)">
<path d="M6.66667 25.3333L10.3427 15.532C10.4379 15.2779 10.6084 15.0589 10.8314 14.9043C11.0544 14.7497 11.3193 14.6668 11.5907 14.6667H28M6.66667 25.3333H25.368C25.9884 25.3332 26.5893 25.1167 27.0672 24.7213C27.5452 24.3258 27.8703 23.776 27.9867 23.1667L29.3147 16.2187C29.3464 16.0278 29.3362 15.8322 29.2848 15.6456C29.2333 15.459 29.1419 15.2859 29.0168 15.1382C28.8917 14.9905 28.7359 14.8718 28.5603 14.7904C28.3848 14.709 28.1935 14.6668 28 14.6667M6.66667 25.3333C5.95942 25.3333 5.28115 25.0524 4.78105 24.5523C4.28095 24.0522 4 23.3739 4 22.6667V8.00001C4 7.29277 4.28095 6.61449 4.78105 6.11439C5.28115 5.61429 5.95942 5.33334 6.66667 5.33334H12L16 9.33334H25.3333C26.0406 9.33334 26.7189 9.6143 27.219 10.1144C27.719 10.6145 28 11.2928 28 12V14.6667" stroke="#800280" stroke-width="2.75" stroke-linecap="round" stroke-linejoin="round"/>
</g>
<defs>
<clipPath id="clip0_3_102">
<rect width="32" height="32" fill="white"/>
</clipPath>
</defs>
</svg>
